<?xml version="1.0" encoding="UTF-8" standalone="no"?>
<!-- Created with Inkscape (http://www.inkscape.org/) -->

<svg
   width="210mm"
   height="297mm"
   viewBox="0 0 210 297"
   version="1.1"
   id="svg5"
   inkscape:version="1.1.1 (3bf5ae0d25, 2021-09-20)"
   sodipodi:docname="logo3.svg"
   xmlns:inkscape="http://www.inkscape.org/namespaces/inkscape"
   xmlns:sodipodi="http://sodipodi.sourceforge.net/DTD/sodipodi-0.dtd"
   xmlns="http://www.w3.org/2000/svg"
   xmlns:svg="http://www.w3.org/2000/svg">
  <sodipodi:namedview
     id="namedview7"
     pagecolor="#505050"
     bordercolor="#ffffff"
     borderopacity="1"
     inkscape:pageshadow="0"
     inkscape:pageopacity="0"
     inkscape:pagecheckerboard="1"
     inkscape:document-units="mm"
     showgrid="false"
     inkscape:zoom="0.64052329"
     inkscape:cx="303.65797"
     inkscape:cy="642.44346"
     inkscape:window-width="1920"
     inkscape:window-height="1017"
     inkscape:window-x="1912"
     inkscape:window-y="-8"
     inkscape:window-maximized="1"
     inkscape:current-layer="layer1" />
  <defs
     id="defs2">
    <marker
       inkscape:stockid="DistanceStart"
       orient="auto"
       refY="0.0"
       refX="0.0"
       id="DistanceStart"
       style="overflow:visible"
       inkscape:isstock="true">
      <g
         id="g2300">
        <path
           id="path2306"
           d="M 0,0 L 2,0"
           style="fill:none;stroke:context-fill;stroke-width:1.15;stroke-linecap:square" />
        <path
           id="path2302"
           d="M 0,0 L 13,4 L 9,0 13,-4 L 0,0 z "
           style="fill:context-stroke;fill-rule:evenodd;stroke:none" />
        <path
           id="path2304"
           d="M 0,-4 L 0,40"
           style="fill:none;stroke:context-stroke;stroke-width:1;stroke-linecap:square" />
      </g>
    </marker>
    <marker
       style="overflow:visible"
       id="marker1485"
       refX="0.0"
       refY="0.0"
       orient="auto"
       inkscape:stockid="Arrow1Lstart"
       inkscape:isstock="true">
      <path
         transform="scale(0.8) translate(12.5,0)"
         style="fill-rule:evenodd;fill:context-stroke;stroke:context-stroke;stroke-width:1.0pt"
         d="M 0.0,0.0 L 5.0,-5.0 L -12.5,0.0 L 5.0,5.0 L 0.0,0.0 z "
         id="path1483" />
    </marker>
    <marker
       style="overflow:visible"
       id="Arrow1Lstart"
       refX="0.0"
       refY="0.0"
       orient="auto"
       inkscape:stockid="Arrow1Lstart"
       inkscape:isstock="true">
      <path
         transform="scale(0.8) translate(12.5,0)"
         style="fill-rule:evenodd;fill:context-stroke;stroke:context-stroke;stroke-width:1.0pt"
         d="M 0.0,0.0 L 5.0,-5.0 L -12.5,0.0 L 5.0,5.0 L 0.0,0.0 z "
         id="path1215" />
    </marker>
  </defs>
  <g
     inkscape:label="Layer 1"
     inkscape:groupmode="layer"
     id="layer1">
    <path
       id="rect846"
       style="fill:none;stroke:#000000;stroke-width:5.29167;stroke-linecap:round;stroke-linejoin:bevel;stroke-miterlimit:4;stroke-dasharray:none;stroke-opacity:1;paint-order:markers stroke fill"
       d="M 109.76911,44.945247 44.244231,93.820141 V 214.66557 l 65.524879,48.87556 65.52488,-48.87556 V 93.820141 Z" />
    <g
       id="g5581"
       transform="matrix(1.1593463,0,0,1.4319276,209.43613,-2.9695961)"
       style="stroke-width:3.08025;stroke-miterlimit:4;stroke-dasharray:none">
      <g
         aria-label="S"
         transform="matrix(1.2363357,0,0,0.80884179,5.3699583,-16.522949)"
         id="text2857"
         style="font-size:33.1436px;line-height:1.25;stroke-width:3.08025;stroke-miterlimit:4;stroke-dasharray:none">
        <path
           d="m -72.073745,108.06727 q 0,1.40795 -0.663519,2.78354 -0.647336,1.37559 -1.828724,2.33041 -1.294672,1.03574 -3.026296,1.61834 -1.71544,0.58261 -4.14295,0.58261 -2.605527,0 -4.693185,-0.48551 -2.071475,-0.4855 -4.223867,-1.44032 v -4.01348 h 0.226567 q 1.828724,1.52124 4.223867,2.34659 2.395143,0.82535 4.498985,0.82535 2.977745,0 4.628452,-1.11665 1.66689,-1.11666 1.66689,-2.97775 0,-1.60215 -0.792986,-2.36277 -0.776804,-0.76062 -2.37896,-1.18139 -1.213755,-0.32367 -2.637894,-0.53405 -1.407956,-0.21039 -2.993929,-0.53405 -3.204313,-0.67971 -4.757919,-2.31423 -1.537423,-1.650707 -1.537423,-4.288601 0,-3.026296 2.556977,-4.95212 2.556977,-1.942008 6.489543,-1.942008 2.540794,0 4.660819,0.485502 2.120025,0.485502 3.754548,1.197571 v 3.786916 h -0.226567 q -1.375589,-1.165205 -3.625082,-1.925825 -2.233309,-0.776803 -4.579901,-0.776803 -2.573161,0 -4.14295,1.068104 -1.553607,1.068105 -1.553607,2.751178 0,1.505056 0.776803,2.362776 0.776804,0.85772 2.734995,1.31086 1.035737,0.22656 2.945378,0.55023 1.909641,0.32367 3.23668,0.66352 2.686444,0.71207 4.04585,2.15239 1.359405,1.44033 1.359405,4.02967 z"
           id="path5517"
           style="stroke-width:3.08025;stroke-miterlimit:4;stroke-dasharray:none" />
      </g>
      <g
         aria-label="B"
         transform="matrix(1.2363357,0,0,0.80884178,3.5258523,-20.473452)"
         id="text4511"
         style="font-size:33.1436px;line-height:1.25;stroke-width:3.08025;stroke-miterlimit:4;stroke-dasharray:none">
        <path
           d="m -55.612511,126.90151 q 0,1.79636 -0.679703,3.17195 -0.679703,1.37559 -1.828724,2.26567 -1.359405,1.06811 -2.993929,1.52124 -1.61834,0.45314 -4.126766,0.45314 h -8.544835 v -24.09708 h 7.136879 q 2.637894,0 3.948749,0.1942 1.310856,0.1942 2.508427,0.80917 1.327039,0.69588 1.925824,1.79635 0.598786,1.08429 0.598786,2.60553 0,1.71544 -0.873903,2.9292 -0.873904,1.19757 -2.33041,1.92582 v 0.12947 q 2.443693,0.50168 3.851649,2.15239 1.407956,1.63452 1.407956,4.14295 z m -5.389072,-10.85906 q 0,-0.8739 -0.291301,-1.47269 -0.291301,-0.59879 -0.938637,-0.971 -0.76062,-0.43695 -1.844908,-0.53406 -1.084287,-0.11328 -2.686444,-0.11328 h -3.819282 v 6.95886 h 4.14295 q 1.505056,0 2.395143,-0.14565 0.890087,-0.16183 1.650707,-0.64733 0.76062,-0.48551 1.068104,-1.24613 0.323668,-0.7768 0.323668,-1.82872 z m 2.055292,10.98853 q 0,-1.45651 -0.436952,-2.31423 -0.436952,-0.85772 -1.585973,-1.4565 -0.776803,-0.40459 -1.893458,-0.51787 -1.100471,-0.12947 -2.686444,-0.12947 h -5.033037 v 8.9656 h 4.240051 q 2.103841,0 3.447063,-0.21038 1.343223,-0.22657 2.200943,-0.80917 0.90627,-0.63115 1.327038,-1.44032 0.420769,-0.80917 0.420769,-2.08766 z"
           id="path5520"
           style="stroke-width:3.08025;stroke-miterlimit:4;stroke-dasharray:none" />
      </g>
    </g>
    <text
       xml:space="preserve"
       style="font-style:normal;font-weight:normal;font-size:27.962px;line-height:1.25;font-family:sans-serif;fill:#000000;fill-opacity:1;stroke:none;stroke-width:3.96875;stroke-miterlimit:4;stroke-dasharray:none"
       x="68.713226"
       y="188.92415"
       id="text6417"
       transform="scale(0.92530835,1.0807208)"><tspan
         sodipodi:role="line"
         id="tspan6415"
         style="stroke-width:3.96875;stroke-miterlimit:4;stroke-dasharray:none"
         x="68.713226"
         y="188.92415">CODES</tspan></text>
    <path
       style="color:#000000;fill:#666666;fill-rule:evenodd;stroke-width:0.496034;-inkscape-stroke:none"
       d="m 107.76263,130.07877 c -9.445896,0.25336 -18.707206,2.85192 -25.391731,7.86723 -11.962938,8.97564 -11.407893,23.23587 2.540365,31.23116 12.333772,7.06986 31.841536,6.7002 42.680756,-1.69675 9.44451,-7.31649 8.8808,-18.82837 -2.60354,-25.14884 -9.82107,-5.40508 -25.179598,-5.02783 -33.474173,1.75107 -6.921044,5.65635 -6.340852,14.43849 2.715598,19.0689 7.306595,3.73574 18.561595,3.34389 24.272345,-1.85579 4.38803,-3.99531 3.77081,-10.10544 -2.96356,-12.99605 -2.3978,-1.02921 -5.30115,-1.41909 -8.08482,-1.11961 -2.78367,0.29947 -5.52942,1.38223 -7.00358,3.26515 -0.927812,1.18507 -1.159405,2.54331 -0.641354,3.86669 0.518054,1.32338 2.140344,2.69768 4.619384,3.06123 1.75985,0.25808 2.8375,-0.0392 4.07699,-0.62201 0.61974,-0.29139 1.3382,-0.73963 1.58787,-1.51881 0.24968,-0.77916 -0.31596,-1.66292 -1.05858,-2.1534 l -3.52742,2.32977 c -0.0499,-0.0329 -0.41704,-0.47643 -0.29446,-0.859 0.12259,-0.38256 0.38867,-0.47762 0.39936,-0.48265 0.0214,-0.01 -0.74362,-0.004 -0.10252,0.0898 -0.55269,-0.0811 -0.69073,-0.2115 -0.87024,-0.67005 -0.1795,-0.45855 -0.0464,-1.15981 0.242,-1.52825 0.70145,-0.89595 1.86756,-1.36452 3.37483,-1.52668 1.50728,-0.16216 3.27335,0.0765 4.56456,0.63067 4.09318,1.75694 4.4819,5.71283 1.64271,8.29792 -3.92197,3.57098 -11.96918,3.84962 -17.179352,1.18576 -6.694614,-3.42285 -7.135443,-10.10468 -1.889477,-14.39204 6.441299,-5.26427 18.635749,-5.5645 26.400239,-1.29126 9.23963,5.08509 9.70274,14.51387 2.00154,20.47985 -8.95618,6.93819 -25.317111,7.24855 -35.615176,1.34559 -11.767478,-6.74525 -12.243116,-18.92947 -2.065912,-26.5653 11.46883,-8.60492 32.006358,-8.9218 44.828928,-1.37944 14.28799,8.40432 14.77034,23.34935 2.10644,32.65075 l 3.70981,2.20302 c 14.4785,-10.63419 13.92994,-27.65081 -2.49864,-37.31426 -7.42266,-4.36607 -17.0533,-6.45769 -26.49919,-6.20434 z"
       id="path1178" />
    <path
       style="color:#000000;fill:#000000;fill-rule:evenodd;stroke-width:0.496034;-inkscape-stroke:none"
       d="m 104.23759,131.15666 c -9.445898,0.25335 -18.707208,2.85191 -25.391728,7.86723 -11.96294,8.97564 -11.4079,23.23587 2.54036,31.23115 12.33377,7.06986 31.841538,6.70021 42.680758,-1.69674 9.44451,-7.31649 8.8808,-18.82837 -2.60354,-25.14884 -9.82107,-5.40509 -25.179598,-5.02784 -33.474178,1.75107 -6.92104,5.65635 -6.34085,14.43849 2.7156,19.06891 7.3066,3.73573 18.561598,3.34387 24.272358,-1.8558 4.38802,-3.99532 3.7708,-10.10544 -2.96357,-12.99606 -2.3978,-1.02921 -5.30115,-1.41908 -8.08482,-1.11961 -2.78367,0.29947 -5.529428,1.38224 -7.003588,3.26515 -0.9278,1.18508 -1.1594,2.54332 -0.64135,3.8667 0.51806,1.32337 2.14034,2.69768 4.619388,3.06122 1.75985,0.25808 2.8375,-0.0392 4.07699,-0.622 0.61974,-0.29138 1.3382,-0.73964 1.58787,-1.5188 0.24967,-0.77918 -0.31596,-1.66293 -1.05859,-2.15341 l -3.52742,2.32977 c -0.0499,-0.0329 -0.41703,-0.47644 -0.29445,-0.859 0.12259,-0.38257 0.38867,-0.47763 0.39936,-0.48265 0.0214,-0.01 -0.74362,-0.004 -0.10253,0.0898 -0.55268,-0.0811 -0.69072,-0.21148 -0.87023,-0.67003 -0.1795,-0.45855 -0.0464,-1.15982 0.242,-1.52825 0.70145,-0.89595 1.86755,-1.36453 3.37483,-1.52668 1.50728,-0.16216 3.27335,0.0765 4.56456,0.63067 4.09318,1.75693 4.4819,5.71282 1.64271,8.29791 -3.92197,3.57098 -11.969178,3.84964 -17.179348,1.18576 -6.69462,-3.42285 -7.13545,-10.10467 -1.88948,-14.39203 6.4413,-5.26428 18.635748,-5.5645 26.400248,-1.29126 9.23962,5.08508 9.70273,14.51387 2.00153,20.47985 -8.95618,6.93819 -25.317108,7.24855 -35.615178,1.34559 -11.76748,-6.74526 -12.24311,-18.92947 -2.06591,-26.5653 11.46883,-8.60493 32.006358,-8.9218 44.828928,-1.37944 14.28799,8.40433 14.77034,23.34936 2.10644,32.65075 l 3.70981,2.20301 c 14.4785,-10.63417 13.92994,-27.65081 -2.49864,-37.31425 -7.42266,-4.36607 -17.05331,-6.4577 -26.49919,-6.20434 z"
       id="path1282" />
  </g>
</svg>
